<?xml version="1.0" encoding="UTF-8" standalone="no"?>
<!-- Created with Inkscape (http://www.inkscape.org/) -->

<svg
   width="15.999999"
   height="15.999999"
   viewBox="0 0 4.233333 4.233333"
   version="1.1"
   id="svg1"
   xml:space="preserve"
   xmlns="http://www.w3.org/2000/svg"
   xmlns:svg="http://www.w3.org/2000/svg"><defs
     id="defs1" /><g
     id="layer1"
     transform="matrix(0.06059608,0,0,0.06676058,-4.3822515,-0.01710662)"><g
       id="g1"
       style="fill:#5ea7d5;fill-opacity:1;stroke-opacity:0"
       transform="matrix(1.7240908,0,0,1.7240908,-101.34384,-2.1993533)"><path
         id="path6"
         style="fill:#8cb9d5;fill-opacity:1;fill-rule:evenodd;stroke:none;stroke-linejoin:round"
         d="m 119.12392,16.893596 16.34871,-6.680591 4.4875,20.080615 -16.85597,4.410713 z"
         points="135.47263,10.213005 139.96013,30.29362 123.10416,34.704333 119.12392,16.893596 " /><path
         id="path1"
         style="fill:#8cb9d5;fill-opacity:1;fill-rule:evenodd;stroke:none;stroke-linejoin:round"
         d="m 102.01512,12.971973 5.2781,23.618387 15.81094,-1.886027 -3.98024,-17.810737 z"
         points="107.29322,36.59036 123.10416,34.704333 119.12392,16.893596 102.01512,12.971973 " /><path
         id="path2"
         style="fill:#5ea7d5;fill-opacity:1;fill-rule:evenodd;stroke:none;stroke-linejoin:round"
         d="m 102.01512,12.971973 19.60285,-9.9345731 13.85466,7.1756051 -16.34871,6.680591 z"
         points="121.61797,3.0373999 135.47263,10.213005 119.12392,16.893596 102.01512,12.971973 " /><path
         id="path5"
         style="fill:#8cb9d5;fill-opacity:1;fill-rule:evenodd;stroke:none;stroke-linejoin:round"
         d="m 107.29322,36.59036 20.53353,-5.769979 12.13338,-0.526761 -16.85597,4.410713 z"
         points="127.82675,30.820381 139.96013,30.29362 123.10416,34.704333 107.29322,36.59036 " /><path
         id="path4"
         style="fill:#5190b9;fill-opacity:1;fill-rule:evenodd;stroke:none;stroke-linejoin:round"
         d="m 121.61797,3.0373999 6.20878,27.7829811 12.13338,-0.526761 -4.4875,-20.080615 z"
         points="127.82675,30.820381 139.96013,30.29362 135.47263,10.213005 121.61797,3.0373999 " /><path
         id="path3"
         style="fill:#5ea7d5;fill-opacity:1;fill-rule:evenodd;stroke:none;stroke-linejoin:round"
         d="m 102.01512,12.971973 19.60285,-9.9345731 6.20878,27.7829811 -20.53353,5.769979 z"
         points="121.61797,3.0373999 127.82675,30.820381 107.29322,36.59036 102.01512,12.971973 " /></g></g></svg>
