<svg
   width="700"
   height="250.00002"
   viewBox="0 0 185.20833 66.145837"
   version="1.1"
   id="svg1"
   xml:space="preserve"
   xmlns="http://www.w3.org/2000/svg"
   xmlns:svg="http://www.w3.org/2000/svg"><defs
     id="defs1" /><g
     id="layer1"><g
       id="g15"
       style="stroke:#ffffff;stroke-width:0.6223;stroke-dasharray:none;stroke-opacity:1"><rect
         style="fill:#57a4d5;fill-opacity:1;stroke:none;stroke-width:0.6223;stroke-dasharray:none;stroke-opacity:1"
         id="rect13"
         width="107.65521"
         height="1.7504911"
         x="61.636303"
         y="38.245384"
         rx="0"
         ry="0" /><path
         d="m 72.826786,41.665237 c 3.449412,0 6.271657,2.798123 6.271657,6.223411 0,3.449412 -2.822245,6.247535 -6.271657,6.247535 -3.44941,0 -6.247533,-2.798123 -6.247533,-6.247535 0,-3.425288 2.798123,-6.223411 6.247533,-6.223411 z m 0,10.758302 c 2.508664,0 4.534891,-2.026228 4.534891,-4.534891 0,-2.48454 -2.026227,-4.534888 -4.534891,-4.534888 -2.48454,0 -4.510767,2.050348 -4.510767,4.534888 0,2.508663 2.026227,4.534891 4.510767,4.534891 z M 95.115288,41.665237 c 2.508665,0 4.703737,1.640279 4.703737,4.776107 v 7.525986 h -1.712641 v -7.429499 c 0,-1.688523 -0.988993,-3.111707 -3.352921,-3.111707 -2.918733,0 -3.135828,3.01522 -3.135828,3.01522 v 7.525986 h -1.712644 v -7.429499 c 0,-1.688523 -0.868384,-3.111707 -3.232314,-3.111707 -2.556908,0 -3.28056,3.01522 -3.28056,3.01522 V 53.96733 H 81.703595 V 41.834088 h 1.688522 v 1.688523 c 1.037235,-1.399061 2.508663,-1.857374 3.594142,-1.857374 1.592035,0 3.30468,0.651286 4.124819,2.363931 1.085479,-1.857375 2.774002,-2.363931 4.00421,-2.363931 z m 17.198812,9.118022 1.25433,1.181966 c -0.60305,0.578921 -2.46041,2.170958 -5.04145,2.170958 -3.18406,0 -6.10281,-2.556906 -6.10281,-6.126925 0,-3.57002 2.38806,-6.344021 6.03045,-6.344021 3.3288,0 5.86158,2.605149 5.86158,6.344021 v 0.723653 h -10.08288 c 0.36182,2.07447 2.09859,3.666505 4.29366,3.666505 2.17096,0 3.52178,-1.326696 3.78712,-1.616157 z m -3.85948,-7.477743 c -2.46042,0 -3.93184,1.592035 -4.2213,3.762993 h 8.27376 c -0.50657,-3.111706 -2.53279,-3.762993 -4.05246,-3.762993 z m 14.97959,-1.640279 c 3.69062,0 6.12691,2.966975 6.12691,6.247533 0,3.135829 -2.46041,6.223413 -6.10279,6.223413 -2.29157,0 -3.83535,-1.133724 -4.82435,-2.532784 v 8.032543 h -1.71264 V 41.834088 h 1.71264 v 2.388055 c 0.86838,-1.206088 2.38806,-2.556906 4.80023,-2.556906 z m 0.0241,10.758302 c 2.46042,0 4.46252,-2.026228 4.46252,-4.510769 0,-2.508662 -2.0021,-4.534889 -4.46252,-4.534889 -2.48454,0 -4.63138,2.026227 -4.63138,4.534889 0,2.484541 2.14684,4.510769 4.63138,4.510769 z m 18.69436,-10.589451 h 1.71264 V 53.96733 h -1.71264 v -2.291566 c -0.89252,1.133722 -2.38806,2.460419 -4.51077,2.460419 -3.8836,0 -6.19929,-3.15995 -6.19929,-6.247535 0,-3.135827 2.4363,-6.223411 6.03044,-6.223411 2.29156,0 3.76299,0.96487 4.67962,2.243323 z m -4.70375,10.589451 c 2.41218,0 4.36604,-2.026228 4.36604,-4.534891 0,-2.48454 -1.95386,-4.510767 -4.36604,-4.510767 -2.43629,0 -4.39015,2.026227 -4.39015,4.510767 0,2.508663 1.95386,4.534891 4.39015,4.534891 z M 157.3976,41.834088 h 1.71264 v 11.096007 c 0,3.159949 -1.54378,6.633483 -6.36813,6.633483 -4.24543,0 -5.62037,-3.159951 -5.93395,-4.076577 l 1.64028,-0.506557 c 0,0 0.65128,2.846367 4.34191,2.846367 3.37705,0 4.60725,-2.363932 4.60725,-4.800229 0,-0.916626 0,-1.206087 0,-1.302575 -0.91662,1.350819 -2.38805,2.412176 -4.80022,2.412176 -3.64239,0 -6.12693,-3.087584 -6.12693,-6.223413 0,-3.087585 2.41217,-6.247533 6.1028,-6.247533 2.41218,0 3.93185,1.302573 4.82435,2.436297 z m -4.82435,10.589451 c 2.46043,0 4.51078,-2.026228 4.51078,-4.510769 0,-2.508662 -2.05035,-4.534889 -4.51078,-4.534889 -2.46042,0 -4.46251,2.026227 -4.46251,4.534889 0,2.484541 2.00209,4.510769 4.46251,4.510769 z m 19.03207,-1.64028 1.25433,1.181966 c -0.60304,0.578921 -2.46043,2.170958 -5.04145,2.170958 -3.18406,0 -6.1028,-2.556906 -6.1028,-6.126925 0,-3.57002 2.38806,-6.344021 6.03045,-6.344021 3.32879,0 5.86158,2.605149 5.86158,6.344021 v 0.723653 h -10.08291 c 0.36183,2.07447 2.0986,3.666505 4.29368,3.666505 2.17096,0 3.52178,-1.326696 3.78712,-1.616157 z m -3.85947,-7.477743 c -2.46042,0 -3.93186,1.592035 -4.22133,3.762993 h 8.27377 c -0.50656,-3.111706 -2.53278,-3.762993 -4.05244,-3.762993 z"
         id="text13"
         style="font-size:22.8207px;font-family:Makinas;-inkscape-font-specification:'Makinas, Normal';fill:#000000;fill-opacity:1;stroke:#ffffff;stroke-width:0.6223;stroke-dasharray:none;stroke-opacity:1"
         aria-label="omepage" /><path
         d="m 61.639108,39.968762 h 3.000663 V 64.078875 H 61.639108 V 50.757839 H 44.63535 V 64.078875 H 41.634686 V 35.086031 h 3.000664 v 12.694164 h 17.003758 z"
         id="text11"
         style="font-size:39.4509px;font-family:Makinas;-inkscape-font-specification:'Makinas, Normal';fill:#57a4d5;fill-opacity:1;stroke:none;stroke-width:0.6223;stroke-dasharray:none;stroke-opacity:1"
         aria-label="H" /></g><g
       id="text1"
       style="font-size:40.2251px;font-family:Makinas;-inkscape-font-specification:'Makinas, Normal';stroke:#ffffff;stroke-width:0.622402;stroke-opacity:1"
       aria-label="AI's"><path
         d="m 34.063426,35.297514 -3.218008,-7.200293 h -16.00959 l -3.258233,7.200293 H 8.3998117 L 21.754545,5.5309387 h 2.172156 L 37.281435,35.297514 Z M 16.123031,25.160788 H 29.51799 L 22.840623,10.277501 Z"
         id="path11"
         style="stroke:#ffffff;stroke-opacity:1" /><path
         style="fill:#57a4d5;stroke:none;stroke-width:0.6223;stroke-dasharray:none;stroke-opacity:1"
         d="M 44.64265,35.297514 H 41.625767 V 5.5309387 h 3.016883 z"
         id="path12" /><path
         style="stroke:#ffffff;stroke-opacity:1"
         d="m 50.998225,1.1866278 h 3.94206 L 53.894432,12.972583 h -1.850354 z m 8.487498,31.4560292 2.131931,-1.97103 c 0.764277,0.643602 2.292831,2.011255 5.229263,2.011255 2.936432,0 4.505211,-1.126303 4.746562,-2.815757 0.643602,-5.028138 -13.63631,-2.292831 -11.464154,-10.780327 0.764277,-2.574407 2.936432,-4.304086 7.240518,-4.304086 3.298459,0 6.033765,1.488329 6.717592,2.373281 l -2.011255,2.091705 c -0.522926,-0.442476 -1.850355,-1.649229 -4.666112,-1.649229 -2.815757,0 -4.344311,0.965403 -4.545436,2.855982 -0.482701,4.102961 11.665279,2.051481 11.665279,9.171324 0,5.028137 -5.430388,5.872864 -7.843894,5.872864 -2.373281,0 -5.430389,-0.925177 -7.200294,-2.855982 z"
         id="path13" /></g><g
       id="g1"
       style="fill:#5ea7d5;fill-opacity:1;stroke-opacity:0"><path
         id="path6"
         style="fill:#8cb9d5;fill-opacity:1;fill-rule:evenodd;stroke:none;stroke-linejoin:round"
         d="m 119.12392,16.893596 16.34871,-6.680591 4.4875,20.080615 -16.85597,4.410713 z"
         points="135.47263,10.213005 139.96013,30.29362 123.10416,34.704333 119.12392,16.893596 " /><path
         id="path1"
         style="fill:#8cb9d5;fill-opacity:1;fill-rule:evenodd;stroke:none;stroke-linejoin:round"
         d="m 102.01512,12.971973 5.2781,23.618387 15.81094,-1.886027 -3.98024,-17.810737 z"
         points="107.29322,36.59036 123.10416,34.704333 119.12392,16.893596 102.01512,12.971973 " /><path
         id="path2"
         style="fill:#5ea7d5;fill-opacity:1;fill-rule:evenodd;stroke:none;stroke-linejoin:round"
         d="m 102.01512,12.971973 19.60285,-9.9345731 13.85466,7.1756051 -16.34871,6.680591 z"
         points="121.61797,3.0373999 135.47263,10.213005 119.12392,16.893596 102.01512,12.971973 " /><path
         id="path5"
         style="fill:#8cb9d5;fill-opacity:1;fill-rule:evenodd;stroke:none;stroke-linejoin:round"
         d="m 107.29322,36.59036 20.53353,-5.769979 12.13338,-0.526761 -16.85597,4.410713 z"
         points="127.82675,30.820381 139.96013,30.29362 123.10416,34.704333 107.29322,36.59036 " /><path
         id="path4"
         style="fill:#5190b9;fill-opacity:1;fill-rule:evenodd;stroke:none;stroke-linejoin:round"
         d="m 121.61797,3.0373999 6.20878,27.7829811 12.13338,-0.526761 -4.4875,-20.080615 z"
         points="127.82675,30.820381 139.96013,30.29362 135.47263,10.213005 121.61797,3.0373999 " /><path
         id="path3"
         style="fill:#5ea7d5;fill-opacity:1;fill-rule:evenodd;stroke:none;stroke-linejoin:round"
         d="m 102.01512,12.971973 19.60285,-9.9345731 6.20878,27.7829811 -20.53353,5.769979 z"
         points="121.61797,3.0373999 127.82675,30.820381 107.29322,36.59036 102.01512,12.971973 " />
    </g>
  </g>
</svg>
